<?xml version="1.0" encoding="UTF-8"?>
<svg width="25pt" height="35pt" version="1.1" viewBox="0 0 650 600" xmlns="http://www.w3.org/2000/svg">
 <g>
  <path d="m466.67 303.33c-70.746 0-128.33 57.562-128.33 128.33-0.003907 70.773 57.586 128.34 128.33 128.34 70.746 0 128.33-57.562 128.33-128.33s-57.586-128.34-128.33-128.34zm0 233.34c-57.891 0-105-47.109-105-105s47.109-105 105-105 105 47.109 105 105-47.109 105-105 105z"/>
  <path d="m513.33 420h-35v-35c0-6.4414-5.2266-11.668-11.668-11.668-6.4414 0-11.668 5.2266-11.668 11.668l0.003906 35h-35c-6.4414 0-11.668 5.2266-11.668 11.668 0 6.4375 5.2266 11.664 11.668 11.664h35v35c0 6.4414 5.2266 11.668 11.668 11.668 6.4414 0 11.668-5.2266 11.668-11.668l-0.003907-35h35c6.4414 0 11.668-5.2266 11.668-11.668 0-6.4375-5.2266-11.664-11.668-11.664z"/>
  <path d="m361.67 536.67h-221.67c-6.418 0-11.668-5.2266-11.668-11.668v-443.33c0-6.4414 5.25-11.668 11.668-11.668h58.332v11.668c0 6.4375 5.2266 11.664 11.668 11.664h210c6.4414 0 11.668-5.2266 11.668-11.668v-11.664h58.332c6.418 0 11.668 5.2266 11.668 11.668v186.67c0 6.4414 5.2266 11.668 11.668 11.668 6.4414 0 11.668-5.2266 11.668-11.668v-186.67c-0.003906-19.297-15.707-35-35.004-35h-60.48c-4.8281-13.559-17.664-23.336-32.852-23.336h-41.395c-8.2617-14.234-23.543-23.332-40.273-23.332s-32.012 9.1016-40.273 23.332h-41.395c-15.188 0-28.023 9.7773-32.852 23.336h-60.48c-19.297 0-35 15.703-35 35v443.33c0 19.297 15.703 35 35 35h221.67c6.4414 0 11.668-5.2266 11.668-11.668-0.003907-6.4375-5.2305-11.664-11.668-11.664zm-128.34-490h48.766c4.9453 0 9.3555-3.1016 10.988-7.7461 3.3398-9.3125 12.137-15.59 21.891-15.59 9.7539 0 18.551 6.2773 21.887 15.586 1.6562 4.6445 6.043 7.75 10.988 7.75h48.816c6.418 0 11.668 5.2266 11.668 11.668l-0.003907 11.664h-186.67l0.003907-11.668c0-6.4375 5.25-11.664 11.664-11.664z"/>
 </g>
</svg>
